<svg width="122" height="50" viewBox="0 0 122 50" fill="none" xmlns="http://www.w3.org/2000/svg">
<path d="M59.8152 23.12L58.6392 18.44H52.9032L51.6312 23L48.5592 22.76L50.6712 16.928L53.8872 6.608L58.1832 6.296L61.2792 16.568L63.2712 22.592L59.8152 23.12ZM56.0232 9.416H55.7112L53.6472 15.896H57.9192L56.0232 9.416ZM71.3491 20.648C70.1011 22.216 69.0211 23 68.1091 23C66.9731 23 66.0371 22.536 65.3011 21.608C64.5811 20.68 64.2211 19.488 64.2211 18.032C64.2211 16.032 64.7731 14.344 65.8771 12.968C66.9971 11.592 68.3651 10.904 69.9811 10.904L71.3251 11.096V10.64L71.0371 5.024L74.3251 4.424L74.0131 16.76V18.872C74.0131 19.832 74.2531 20.936 74.7331 22.184L72.1411 23.264C71.6771 22.304 71.4131 21.432 71.3491 20.648ZM66.9091 16.784C66.9091 17.808 67.0931 18.608 67.4611 19.184C67.8451 19.76 68.3891 20.048 69.0931 20.048C69.8131 20.048 70.5571 19.76 71.3251 19.184V14C70.3651 13.808 69.6531 13.712 69.1891 13.712C68.4691 13.712 67.9091 13.968 67.5091 14.48C67.1091 14.992 66.9091 15.76 66.9091 16.784ZM76.34 17.984C76.34 15.936 76.892 14.2 77.996 12.776C79.1 11.352 80.388 10.64 81.86 10.64C83.348 10.64 84.5 11.12 85.316 12.08C86.148 13.04 86.564 14.312 86.564 15.896C86.564 18.008 86.028 19.768 84.956 21.176C83.9 22.568 82.564 23.264 80.948 23.264C79.62 23.264 78.516 22.768 77.636 21.776C76.772 20.768 76.34 19.504 76.34 17.984ZM83.876 17.144C83.876 14.824 83.084 13.664 81.5 13.664C79.852 13.664 79.028 14.752 79.028 16.928C79.028 18.064 79.26 18.952 79.724 19.592C80.188 20.232 80.796 20.552 81.548 20.552C82.316 20.552 82.892 20.264 83.276 19.688C83.676 19.096 83.876 18.248 83.876 17.144ZM95.0461 10.88C96.0701 10.88 96.9261 11.328 97.6141 12.224C98.3181 13.12 98.6701 14.328 98.6701 15.848C98.6701 17.976 98.1181 19.704 97.0141 21.032C95.9261 22.344 94.5661 23 92.9341 23C92.5981 23 92.2221 22.976 91.8061 22.928L91.9261 27.512L88.6381 28.112L88.9501 17.168H88.9741C88.9101 15.024 88.7341 13.104 88.4461 11.408L91.3501 10.784C91.4461 11.632 91.5261 12.472 91.5901 13.304C91.6221 13.224 91.7821 13.008 92.0701 12.656C92.3741 12.288 92.8141 11.904 93.3901 11.504C93.9661 11.088 94.5181 10.88 95.0461 10.88ZM94.1101 14C93.2621 14 92.4381 14.232 91.6381 14.696V16.76L91.7341 20.192C92.5981 20.336 93.2541 20.408 93.7021 20.408C95.2381 20.408 96.0061 19.344 96.0061 17.216C96.0061 15.072 95.3741 14 94.1101 14ZM101.598 11.384V8.768L104.838 8.144L104.526 11.384H107.43L107.166 13.352H104.43L104.31 18.368C104.31 19.12 104.382 19.624 104.526 19.88C104.67 20.12 104.934 20.24 105.318 20.24C105.702 20.24 106.214 20.152 106.854 19.976L106.998 21.68C105.942 22.56 105.014 23 104.214 23C103.414 23 102.758 22.712 102.246 22.136C101.734 21.544 101.478 20.776 101.478 19.832L101.622 17.144L101.598 13.352H99.9415L100.206 11.384H101.598Z" fill="#675BC8"/>
<path d="M81.0089 35.512H81.2489L84.7529 26.392L88.0649 26.488L88.1609 36.808L88.6169 43H85.3769L85.4969 36.76L85.2329 30.448L82.3529 38.392L79.4009 38.536L76.7129 30.448L76.4969 36.76L76.6649 43H73.6889L74.0249 37.168L74.1689 26.872L77.9849 26.272L81.0089 35.512ZM91.9786 43L92.2666 37.168L91.9786 26.44H100.979L100.715 29.008H95.3146L95.1706 33.256H99.9706L99.7066 35.8H95.0746L95.0506 36.76L95.2186 40.456H101.027L100.763 43H91.9786Z" fill="#2E256F"/>
<path d="M2 13.7976L21.9952 2.79369C22.8935 2.29933 23.982 2.29799 24.8816 2.79015L45 13.7976" stroke="#675BC8" stroke-width="2.5" stroke-linecap="round"/>
<path d="M23.6279 11.5259C32.9687 11.5259 40.4805 18.8285 40.4805 27.7632C40.4803 36.6978 32.9686 44.0005 23.6279 44.0005C14.2872 44.0005 6.77552 36.6978 6.77539 27.7632C6.77539 18.8285 14.2872 11.5259 23.6279 11.5259Z" fill="#2E256F" stroke="#675BC8" stroke-width="2"/>
<path d="M29.2578 21.3262L28.835 21.2598L25.8965 20.7979L23.6807 17.7852V17.7842C23.5816 17.6498 23.4521 17.5418 23.3047 17.4678C23.1574 17.3939 22.995 17.3549 22.8311 17.3525H22.8301L18.9121 17.2998H18.9053C17.8759 17.3001 17.062 17.3894 16.4072 17.6367C15.7294 17.8927 15.2482 18.3071 14.8711 18.8936C14.4324 19.5758 14.1344 20.5094 13.9385 21.7148C13.7419 22.9251 13.6433 24.4469 13.6279 26.334L13.624 26.8389H15.8135C17.6371 26.8389 18.6044 25.4278 18.9131 24.2275L18.915 24.2188L18.917 24.2109L19.7432 20.4805H19.8691L19.042 24.2109L19.04 24.2188C18.8441 24.9872 18.4611 25.6341 17.9443 26.0996L17.9424 26.1016C17.3779 26.6157 16.6154 26.9051 15.8184 26.8984H15.0264L14.9434 27.2959L14.1982 30.8721H14.0732L14.7754 27.5L14.9004 26.8984H13.5V26.8682C13.5 22.5225 13.9072 20.1963 14.75 18.8857C15.6041 17.5577 16.9192 17.2402 18.9092 17.2402H18.9102L22.833 17.293C23.0272 17.2958 23.217 17.342 23.3857 17.4268C23.5123 17.4903 23.6237 17.574 23.7158 17.6719L23.8008 17.7744L25.8682 20.585L25.9902 20.751L26.1934 20.7832L29.3828 21.2832V22.3643L28.8496 25.043C28.7358 25.6143 28.5587 25.9488 28.3027 26.2002C28.0009 26.4965 27.5401 26.706 26.8223 26.7891L26.8115 26.79L26.7998 26.792L23.3291 27.3516L22.9111 27.4189L22.9082 27.8418L22.8877 30.8721H22.7627L22.7861 27.377L26.7861 26.7314L26.7871 26.7324C27.371 26.6664 27.8385 26.5191 28.1758 26.1982C28.5132 25.8773 28.6416 25.4549 28.7236 25.043L29.248 22.4131L29.2578 22.3643V21.3262Z" fill="white" stroke="white"/>
<mask id="path-6-inside-1_1_11" fill="white">
<path d="M28.1146 29.6664C28.1913 29.4122 28.3369 29.1914 28.531 29.0352C28.7251 28.879 28.9578 28.7952 29.1964 28.7956H30.1128V25.7446L30.4979 25.8065C31.3714 25.9469 32.0519 26.445 32.5202 27.2868C32.8578 27.8937 33.0147 28.5631 33.0876 29.0638C33.5904 29.4991 34.0279 30.0984 34.3894 30.8478C34.6941 31.4793 34.9463 32.2194 35.1391 33.0476C35.4648 34.4471 35.5089 35.6079 35.5106 35.6566L35.5107 37H34.8361V35.6801C34.8277 35.4849 34.6152 31.2119 32.5792 29.5848L32.4598 29.4894L32.4402 29.3262C32.3387 28.481 31.9878 27.0851 30.7875 26.656V29.5547H29.1964C29.0988 29.5544 29.0037 29.5885 28.9242 29.6522C28.8448 29.716 28.7851 29.8061 28.7536 29.91C28.4846 30.8033 28.0224 31.9211 27.302 32.4465L27.5187 33.3605C27.5941 33.6864 27.7656 33.9739 28.0052 34.1759C28.2447 34.3779 28.5382 34.4824 28.8374 34.4724C29.4419 34.452 30.0711 34.5407 30.7075 34.736L30.9562 34.8122V37H30.2814V35.3979C29.8152 35.274 29.3367 35.2179 28.8577 35.2312C28.4066 35.2451 27.9646 35.0873 27.6032 34.7833C27.2418 34.4792 26.9823 34.0468 26.8668 33.5561L26.5064 32.0359L26.7748 31.9065C27.2766 31.6645 27.7524 30.869 28.1146 29.6664Z"/>
</mask>
<path d="M28.1146 29.6664C28.1913 29.4122 28.3369 29.1914 28.531 29.0352C28.7251 28.879 28.9578 28.7952 29.1964 28.7956H30.1128V25.7446L30.4979 25.8065C31.3714 25.9469 32.0519 26.445 32.5202 27.2868C32.8578 27.8937 33.0147 28.5631 33.0876 29.0638C33.5904 29.4991 34.0279 30.0984 34.3894 30.8478C34.6941 31.4793 34.9463 32.2194 35.1391 33.0476C35.4648 34.4471 35.5089 35.6079 35.5106 35.6566L35.5107 37H34.8361V35.6801C34.8277 35.4849 34.6152 31.2119 32.5792 29.5848L32.4598 29.4894L32.4402 29.3262C32.3387 28.481 31.9878 27.0851 30.7875 26.656V29.5547H29.1964C29.0988 29.5544 29.0037 29.5885 28.9242 29.6522C28.8448 29.716 28.7851 29.8061 28.7536 29.91C28.4846 30.8033 28.0224 31.9211 27.302 32.4465L27.5187 33.3605C27.5941 33.6864 27.7656 33.9739 28.0052 34.1759C28.2447 34.3779 28.5382 34.4824 28.8374 34.4724C29.4419 34.452 30.0711 34.5407 30.7075 34.736L30.9562 34.8122V37H30.2814V35.3979C29.8152 35.274 29.3367 35.2179 28.8577 35.2312C28.4066 35.2451 27.9646 35.0873 27.6032 34.7833C27.2418 34.4792 26.9823 34.0468 26.8668 33.5561L26.5064 32.0359L26.7748 31.9065C27.2766 31.6645 27.7524 30.869 28.1146 29.6664Z" fill="white"/>
<path d="M28.1146 29.6664L27.157 29.378L27.1572 29.3775L28.1146 29.6664ZM29.1964 28.7956L29.1964 29.7956L29.1948 29.7956L29.1964 28.7956ZM30.1128 28.7956H31.1128V29.7956H30.1128V28.7956ZM30.1128 25.7446H29.1128V24.5711L30.2714 24.7573L30.1128 25.7446ZM30.4979 25.8065L30.3392 26.7939L30.3392 26.7939L30.4979 25.8065ZM32.5202 27.2868L31.6463 27.773L31.6463 27.7729L32.5202 27.2868ZM33.0876 29.0638L32.4331 29.8199L32.1516 29.5762L32.098 29.2078L33.0876 29.0638ZM34.3894 30.8478L33.4887 31.2824L33.4887 31.2823L34.3894 30.8478ZM35.1391 33.0476L34.1651 33.2743L34.1651 33.2743L35.1391 33.0476ZM35.5106 35.6566L36.51 35.6216L36.5106 35.639L36.5106 35.6565L35.5106 35.6566ZM35.5107 37L36.5107 36.9999L36.5109 38H35.5107V37ZM34.8361 37V38H33.8361V37H34.8361ZM34.8361 35.6801L35.8352 35.637L35.8361 35.6586V35.6801H34.8361ZM32.5792 29.5848L31.9549 30.366L31.9548 30.366L32.5792 29.5848ZM32.4598 29.4894L31.8355 30.2706L31.5158 30.0151L31.467 29.6087L32.4598 29.4894ZM32.4402 29.3262L33.4331 29.2069L33.4331 29.2069L32.4402 29.3262ZM30.7875 26.656H29.7875V25.2366L31.1241 25.7144L30.7875 26.656ZM30.7875 29.5547H31.7875V30.5547H30.7875V29.5547ZM29.1964 29.5547L29.1964 30.5548L29.193 30.5547L29.1964 29.5547ZM28.7536 29.91L27.7961 29.6216L27.7967 29.6196L28.7536 29.91ZM27.302 32.4465L26.329 32.6771L26.1757 32.0302L26.7128 31.6385L27.302 32.4465ZM27.5187 33.3605L28.4917 33.1298L28.4929 33.1351L27.5187 33.3605ZM28.8374 34.4724L28.8711 35.4718L28.871 35.4718L28.8374 34.4724ZM30.7075 34.736L30.4143 35.692L30.4142 35.692L30.7075 34.736ZM30.9562 34.8122L31.2494 33.8562L31.9562 34.073V34.8122H30.9562ZM30.9562 37H31.9562V38H30.9562V37ZM30.2814 37V38H29.2814V37H30.2814ZM30.2814 35.3979L30.5383 34.4315L31.2814 34.629V35.3979H30.2814ZM28.8577 35.2312L28.8267 34.2316L28.8301 34.2315L28.8577 35.2312ZM26.8668 33.5561L27.8398 33.3254L27.8401 33.3268L26.8668 33.5561ZM26.5064 32.0359L25.5334 32.2665L25.348 31.4843L26.0721 31.1351L26.5064 32.0359ZM26.7748 31.9065L27.2091 32.8072L27.2091 32.8072L26.7748 31.9065ZM28.1146 29.6664L27.1572 29.3775C27.2881 28.9437 27.5424 28.5473 27.904 28.2562L28.531 29.0352L29.158 29.8142C29.1315 29.8356 29.0945 29.8806 29.0719 29.9553L28.1146 29.6664ZM28.531 29.0352L27.904 28.2562C28.2677 27.9635 28.7201 27.7948 29.198 27.7956L29.1964 28.7956L29.1948 29.7956C29.1937 29.7956 29.1909 29.7957 29.1858 29.7976C29.1806 29.7994 29.1708 29.8039 29.158 29.8142L28.531 29.0352ZM29.1964 28.7956V27.7956H30.1128V28.7956V29.7956H29.1964V28.7956ZM30.1128 28.7956H29.1128V25.7446H30.1128H31.1128V28.7956H30.1128ZM30.1128 25.7446L30.2714 24.7573L30.6565 24.8192L30.4979 25.8065L30.3392 26.7939L29.9541 26.732L30.1128 25.7446ZM30.4979 25.8065L30.6565 24.8192C31.8622 25.013 32.792 25.7182 33.3941 26.8008L32.5202 27.2868L31.6463 27.7729C31.3118 27.1717 30.8806 26.8809 30.3392 26.7939L30.4979 25.8065ZM32.5202 27.2868L33.394 26.8007C33.8132 27.5542 33.9951 28.3556 34.0772 28.9199L33.0876 29.0638L32.098 29.2078C32.0344 28.7707 31.9023 28.2332 31.6463 27.773L32.5202 27.2868ZM33.0876 29.0638L33.742 28.3078C34.3704 28.8516 34.8836 29.5708 35.2901 30.4133L34.3894 30.8478L33.4887 31.2823C33.1721 30.6261 32.8105 30.1466 32.4331 29.8199L33.0876 29.0638ZM34.3894 30.8478L35.29 30.4133C35.6327 31.1234 35.9069 31.9355 36.113 32.821L35.1391 33.0476L34.1651 33.2743C33.9856 32.5032 33.7555 31.8352 33.4887 31.2824L34.3894 30.8478ZM35.1391 33.0476L36.113 32.8209C36.4593 34.3088 36.5071 35.5411 36.51 35.6216L35.5106 35.6566L34.5112 35.6916C34.5106 35.6746 34.4702 34.5853 34.1651 33.2743L35.1391 33.0476ZM35.5106 35.6566L36.5106 35.6565L36.5107 36.9999L35.5107 37L34.5107 37.0001L34.5106 35.6567L35.5106 35.6566ZM35.5107 37V38H34.8361V37V36H35.5107V37ZM34.8361 37H33.8361V35.6801H34.8361H35.8361V37H34.8361ZM34.8361 35.6801L33.837 35.7233C33.8341 35.6558 33.783 34.6096 33.4952 33.4011C33.1948 32.1399 32.6941 30.9568 31.9549 30.366L32.5792 29.5848L33.2035 28.8036C34.5002 29.8399 35.1238 31.6069 35.4408 32.9377C35.7703 34.3213 35.8296 35.5092 35.8352 35.637L34.8361 35.6801ZM32.5792 29.5848L31.9548 30.366L31.8355 30.2706L32.4598 29.4894L33.0842 28.7083L33.2035 28.8037L32.5792 29.5848ZM32.4598 29.4894L31.467 29.6087L31.4474 29.4455L32.4402 29.3262L33.4331 29.2069L33.4527 29.3702L32.4598 29.4894ZM32.4402 29.3262L31.4474 29.4455C31.4034 29.08 31.3096 28.6439 31.1289 28.2771C30.9523 27.9187 30.7312 27.6979 30.4509 27.5977L30.7875 26.656L31.1241 25.7144C32.0441 26.0433 32.5986 26.735 32.9229 27.3931C33.2431 28.0428 33.3755 28.7273 33.4331 29.2069L32.4402 29.3262ZM30.7875 26.656H31.7875V29.5547H30.7875H29.7875V26.656H30.7875ZM30.7875 29.5547V30.5547H29.1964V29.5547V28.5547H30.7875V29.5547ZM29.1964 29.5547L29.193 30.5547C29.3348 30.5552 29.4595 30.5049 29.55 30.4323L28.9242 29.6522L28.2985 28.8722C28.5478 28.6722 28.8629 28.5536 29.1998 28.5548L29.1964 29.5547ZM28.9242 29.6522L29.55 30.4323C29.6383 30.3614 29.6876 30.2759 29.7105 30.2003L28.7536 29.91L27.7967 29.6196C27.8826 29.3363 28.0512 29.0705 28.2985 28.8722L28.9242 29.6522ZM28.7536 29.91L29.7111 30.1983C29.5659 30.6804 29.3617 31.2479 29.0829 31.7801C28.8106 32.3002 28.428 32.863 27.8913 33.2544L27.302 32.4465L26.7128 31.6385C26.8965 31.5046 27.1051 31.2458 27.3112 30.8523C27.5109 30.4709 27.6722 30.0328 27.7961 29.6216L28.7536 29.91ZM27.302 32.4465L28.2751 32.2158L28.4917 33.1298L27.5187 33.3605L26.5456 33.5911L26.329 32.6771L27.302 32.4465ZM27.5187 33.3605L28.4929 33.1351C28.5231 33.2656 28.587 33.3585 28.6498 33.4114L28.0052 34.1759L27.3606 34.9404C26.9442 34.5894 26.665 34.1073 26.5444 33.5859L27.5187 33.3605ZM28.0052 34.1759L28.6498 33.4114C28.7098 33.462 28.7643 33.4743 28.8038 33.4729L28.8374 34.4724L28.871 35.4718C28.3121 35.4906 27.7797 35.2938 27.3606 34.9404L28.0052 34.1759ZM28.8374 34.4724L28.8037 33.4729C29.5295 33.4484 30.2692 33.5555 31.0008 33.7799L30.7075 34.736L30.4142 35.692C29.873 35.5259 29.3543 35.4555 28.8711 35.4718L28.8374 34.4724ZM30.7075 34.736L31.0008 33.7799L31.2494 33.8562L30.9562 34.8122L30.663 35.7683L30.4143 35.692L30.7075 34.736ZM30.9562 34.8122H31.9562V37H30.9562H29.9562V34.8122H30.9562ZM30.9562 37V38H30.2814V37V36H30.9562V37ZM30.2814 37H29.2814V35.3979H30.2814H31.2814V37H30.2814ZM30.2814 35.3979L30.0246 36.3644C29.6504 36.2649 29.2677 36.2202 28.8853 36.2308L28.8577 35.2312L28.8301 34.2315C29.4057 34.2157 29.98 34.2831 30.5383 34.4315L30.2814 35.3979ZM28.8577 35.2312L28.8887 36.2307C28.1793 36.2527 27.4996 36.003 26.9594 35.5485L27.6032 34.7833L28.247 34.0181C28.4296 34.1717 28.634 34.2376 28.8267 34.2316L28.8577 35.2312ZM27.6032 34.7833L26.9594 35.5485C26.4219 35.0963 26.0548 34.4705 25.8934 33.7853L26.8668 33.5561L27.8401 33.3268C27.9099 33.6232 28.0618 33.8622 28.247 34.0181L27.6032 34.7833ZM26.8668 33.5561L25.8937 33.7867L25.5334 32.2665L26.5064 32.0359L27.4795 31.8052L27.8398 33.3254L26.8668 33.5561ZM26.5064 32.0359L26.0721 31.1351L26.3405 31.0057L26.7748 31.9065L27.2091 32.8072L26.9408 32.9366L26.5064 32.0359ZM26.7748 31.9065L26.3405 31.0057C26.3366 31.0076 26.4553 30.9402 26.6389 30.6334C26.8109 30.3458 26.9913 29.9285 27.157 29.378L28.1146 29.6664L29.0721 29.9547C28.8757 30.6069 28.6372 31.1886 28.3553 31.6599C28.0849 32.112 27.7149 32.5634 27.2091 32.8072L26.7748 31.9065Z" fill="white" mask="url(#path-6-inside-1_1_11)"/>
</svg>
